<mxfile host="app.diagrams.net" agent="Mozilla/5.0 (Macintosh; Intel Mac OS X 10_15_7) AppleWebKit/537.36 (KHTML, like Gecko) Chrome/135.0.0.0 Safari/537.36" version="26.2.14">
  <diagram name="第 1 页" id="6D_Y1OzAaPjSYgPK3Ovo">
    <mxGraphModel dx="2066" dy="1126" grid="0" gridSize="10" guides="1" tooltips="1" connect="1" arrows="1" fold="1" page="1" pageScale="1" pageWidth="2339" pageHeight="3300" math="0" shadow="0">
      <root>
        <mxCell id="0" />
        <mxCell id="1" parent="0" />
        <mxCell id="jzSwPiA5SmMhQmbik8Ob-5" style="edgeStyle=orthogonalEdgeStyle;rounded=0;orthogonalLoop=1;jettySize=auto;html=1;exitX=0.5;exitY=1;exitDx=0;exitDy=0;entryX=0.5;entryY=0;entryDx=0;entryDy=0;" parent="1" source="jzSwPiA5SmMhQmbik8Ob-1" target="jzSwPiA5SmMhQmbik8Ob-4" edge="1">
          <mxGeometry relative="1" as="geometry" />
        </mxCell>
        <mxCell id="jzSwPiA5SmMhQmbik8Ob-6" value="&lt;font style=&quot;font-size: 12px;&quot;&gt;轨迹查询&lt;/font&gt;" style="edgeLabel;html=1;align=center;verticalAlign=middle;resizable=0;points=[];" parent="jzSwPiA5SmMhQmbik8Ob-5" vertex="1" connectable="0">
          <mxGeometry x="-0.2235" y="2" relative="1" as="geometry">
            <mxPoint as="offset" />
          </mxGeometry>
        </mxCell>
        <mxCell id="jzSwPiA5SmMhQmbik8Ob-1" value="三方轨迹查询request" style="rounded=0;whiteSpace=wrap;html=1;fillColor=#f5f5f5;fontColor=#333333;strokeColor=#666666;" parent="1" vertex="1">
          <mxGeometry x="316.38" y="246" width="776.25" height="22" as="geometry" />
        </mxCell>
        <mxCell id="jzSwPiA5SmMhQmbik8Ob-3" value="" style="rounded=0;whiteSpace=wrap;html=1;" parent="1" vertex="1">
          <mxGeometry x="176" y="454" width="1057" height="655" as="geometry" />
        </mxCell>
        <mxCell id="jzSwPiA5SmMhQmbik8Ob-41" style="edgeStyle=orthogonalEdgeStyle;rounded=0;orthogonalLoop=1;jettySize=auto;html=1;entryX=0.5;entryY=0;entryDx=0;entryDy=0;" parent="1" source="jzSwPiA5SmMhQmbik8Ob-4" target="jzSwPiA5SmMhQmbik8Ob-40" edge="1">
          <mxGeometry relative="1" as="geometry" />
        </mxCell>
        <mxCell id="jzSwPiA5SmMhQmbik8Ob-4" value="轨迹服务" style="rounded=0;whiteSpace=wrap;html=1;fillColor=#dae8fc;strokeColor=#6c8ebf;" parent="1" vertex="1">
          <mxGeometry x="176" y="454" width="1057" height="20" as="geometry" />
        </mxCell>
        <mxCell id="jzSwPiA5SmMhQmbik8Ob-7" value="兴途" style="rounded=0;whiteSpace=wrap;html=1;dashed=1;fillColor=#f8cecc;strokeColor=#b85450;" parent="1" vertex="1">
          <mxGeometry x="228" y="1044" width="120" height="60" as="geometry" />
        </mxCell>
        <mxCell id="jzSwPiA5SmMhQmbik8Ob-8" value="向南" style="rounded=0;whiteSpace=wrap;html=1;fillColor=#FFCCCC;strokeColor=#82b366;dashed=1;" parent="1" vertex="1">
          <mxGeometry x="440" y="1044" width="120" height="60" as="geometry" />
        </mxCell>
        <mxCell id="jzSwPiA5SmMhQmbik8Ob-9" value="货路通" style="rounded=0;whiteSpace=wrap;html=1;fillColor=#d5e8d4;strokeColor=#82b366;" parent="1" vertex="1">
          <mxGeometry x="651" y="1044" width="120" height="60" as="geometry" />
        </mxCell>
        <mxCell id="jzSwPiA5SmMhQmbik8Ob-26" value="顺序查询(响应数据即返回,,不在查询其他数据源)" style="rounded=0;whiteSpace=wrap;html=1;fillColor=#fff2cc;strokeColor=#d6b656;" parent="1" vertex="1">
          <mxGeometry x="177" y="1022" width="1054" height="15" as="geometry" />
        </mxCell>
        <mxCell id="jzSwPiA5SmMhQmbik8Ob-10" value="中交" style="rounded=0;whiteSpace=wrap;html=1;fillColor=#d5e8d4;strokeColor=#82b366;" parent="1" vertex="1">
          <mxGeometry x="863" y="1044" width="120" height="60" as="geometry" />
        </mxCell>
        <mxCell id="jzSwPiA5SmMhQmbik8Ob-29" value="是" style="edgeStyle=orthogonalEdgeStyle;rounded=0;orthogonalLoop=1;jettySize=auto;html=1;entryX=0.5;entryY=0;entryDx=0;entryDy=0;dashed=1;" parent="1" source="jzSwPiA5SmMhQmbik8Ob-14" target="jzSwPiA5SmMhQmbik8Ob-7" edge="1">
          <mxGeometry relative="1" as="geometry" />
        </mxCell>
        <mxCell id="jzSwPiA5SmMhQmbik8Ob-58" value="(添加兴途轨迹数据源)" style="edgeLabel;html=1;align=center;verticalAlign=middle;resizable=0;points=[];" parent="jzSwPiA5SmMhQmbik8Ob-29" vertex="1" connectable="0">
          <mxGeometry x="-0.0698" y="1" relative="1" as="geometry">
            <mxPoint x="49" y="-1" as="offset" />
          </mxGeometry>
        </mxCell>
        <mxCell id="L_R8jjP33GDQDXgNJR4n-18" style="edgeStyle=orthogonalEdgeStyle;rounded=0;orthogonalLoop=1;jettySize=auto;html=1;entryX=0.5;entryY=0;entryDx=0;entryDy=0;" edge="1" parent="1" source="jzSwPiA5SmMhQmbik8Ob-14" target="L_R8jjP33GDQDXgNJR4n-5">
          <mxGeometry relative="1" as="geometry" />
        </mxCell>
        <mxCell id="L_R8jjP33GDQDXgNJR4n-19" value="否" style="edgeLabel;html=1;align=center;verticalAlign=middle;resizable=0;points=[];" vertex="1" connectable="0" parent="L_R8jjP33GDQDXgNJR4n-18">
          <mxGeometry x="-0.2632" y="2" relative="1" as="geometry">
            <mxPoint as="offset" />
          </mxGeometry>
        </mxCell>
        <mxCell id="jzSwPiA5SmMhQmbik8Ob-14" value="是否包含车架号前缀" style="rhombus;whiteSpace=wrap;html=1;" parent="1" vertex="1">
          <mxGeometry x="659.51" y="695" width="90" height="40" as="geometry" />
        </mxCell>
        <mxCell id="jzSwPiA5SmMhQmbik8Ob-51" style="edgeStyle=orthogonalEdgeStyle;rounded=0;orthogonalLoop=1;jettySize=auto;html=1;" parent="1" source="jzSwPiA5SmMhQmbik8Ob-40" target="jzSwPiA5SmMhQmbik8Ob-50" edge="1">
          <mxGeometry relative="1" as="geometry" />
        </mxCell>
        <mxCell id="jzSwPiA5SmMhQmbik8Ob-52" value="是" style="edgeLabel;html=1;align=center;verticalAlign=middle;resizable=0;points=[];" parent="jzSwPiA5SmMhQmbik8Ob-51" vertex="1" connectable="0">
          <mxGeometry x="0.0531" y="-3" relative="1" as="geometry">
            <mxPoint as="offset" />
          </mxGeometry>
        </mxCell>
        <mxCell id="jzSwPiA5SmMhQmbik8Ob-56" style="edgeStyle=orthogonalEdgeStyle;rounded=0;orthogonalLoop=1;jettySize=auto;html=1;entryX=0.5;entryY=0;entryDx=0;entryDy=0;" parent="1" source="jzSwPiA5SmMhQmbik8Ob-40" target="jzSwPiA5SmMhQmbik8Ob-14" edge="1">
          <mxGeometry relative="1" as="geometry" />
        </mxCell>
        <mxCell id="jzSwPiA5SmMhQmbik8Ob-57" value="否" style="edgeLabel;html=1;align=center;verticalAlign=middle;resizable=0;points=[];" parent="jzSwPiA5SmMhQmbik8Ob-56" vertex="1" connectable="0">
          <mxGeometry x="0.1034" y="-1" relative="1" as="geometry">
            <mxPoint as="offset" />
          </mxGeometry>
        </mxCell>
        <mxCell id="jzSwPiA5SmMhQmbik8Ob-40" value="校验是否设备轨迹" style="rhombus;whiteSpace=wrap;html=1;" parent="1" vertex="1">
          <mxGeometry x="604" y="511" width="200" height="70" as="geometry" />
        </mxCell>
        <mxCell id="L_R8jjP33GDQDXgNJR4n-23" style="edgeStyle=orthogonalEdgeStyle;rounded=0;orthogonalLoop=1;jettySize=auto;html=1;entryX=1;entryY=0.5;entryDx=0;entryDy=0;" edge="1" parent="1" source="jzSwPiA5SmMhQmbik8Ob-50" target="jzSwPiA5SmMhQmbik8Ob-14">
          <mxGeometry relative="1" as="geometry">
            <Array as="points">
              <mxPoint x="1045" y="715" />
            </Array>
          </mxGeometry>
        </mxCell>
        <mxCell id="L_R8jjP33GDQDXgNJR4n-24" value="设备查询失败" style="edgeLabel;html=1;align=center;verticalAlign=middle;resizable=0;points=[];" vertex="1" connectable="0" parent="L_R8jjP33GDQDXgNJR4n-23">
          <mxGeometry x="0.0424" y="-1" relative="1" as="geometry">
            <mxPoint as="offset" />
          </mxGeometry>
        </mxCell>
        <mxCell id="jzSwPiA5SmMhQmbik8Ob-50" value="设备轨迹查询" style="rounded=0;whiteSpace=wrap;html=1;fillColor=#f5f5f5;fontColor=#333333;strokeColor=#666666;" parent="1" vertex="1">
          <mxGeometry x="985" y="632" width="120" height="60" as="geometry" />
        </mxCell>
        <mxCell id="jzSwPiA5SmMhQmbik8Ob-62" style="edgeStyle=orthogonalEdgeStyle;rounded=0;orthogonalLoop=1;jettySize=auto;html=1;exitX=0.5;exitY=1;exitDx=0;exitDy=0;entryX=0.5;entryY=0;entryDx=0;entryDy=0;" parent="1" source="jzSwPiA5SmMhQmbik8Ob-64" target="jzSwPiA5SmMhQmbik8Ob-67" edge="1">
          <mxGeometry relative="1" as="geometry" />
        </mxCell>
        <mxCell id="jzSwPiA5SmMhQmbik8Ob-63" value="&lt;font style=&quot;font-size: 12px;&quot;&gt;轨迹查询&lt;/font&gt;" style="edgeLabel;html=1;align=center;verticalAlign=middle;resizable=0;points=[];" parent="jzSwPiA5SmMhQmbik8Ob-62" vertex="1" connectable="0">
          <mxGeometry x="-0.2235" y="2" relative="1" as="geometry">
            <mxPoint as="offset" />
          </mxGeometry>
        </mxCell>
        <mxCell id="jzSwPiA5SmMhQmbik8Ob-64" value="三方轨迹查询request(添加唯一标识,如运单号)" style="rounded=0;whiteSpace=wrap;html=1;fillColor=#f5f5f5;fontColor=#333333;strokeColor=#666666;" parent="1" vertex="1">
          <mxGeometry x="1568.5" y="109" width="240" height="70" as="geometry" />
        </mxCell>
        <mxCell id="jzSwPiA5SmMhQmbik8Ob-65" value="" style="rounded=0;whiteSpace=wrap;html=1;" parent="1" vertex="1">
          <mxGeometry x="1341" y="309" width="697.5" height="573" as="geometry" />
        </mxCell>
        <mxCell id="jzSwPiA5SmMhQmbik8Ob-67" value="轨迹服务" style="rounded=0;whiteSpace=wrap;html=1;fillColor=#dae8fc;strokeColor=#6c8ebf;" parent="1" vertex="1">
          <mxGeometry x="1341" y="309" width="695" height="20" as="geometry" />
        </mxCell>
        <mxCell id="jzSwPiA5SmMhQmbik8Ob-89" style="edgeStyle=orthogonalEdgeStyle;rounded=0;orthogonalLoop=1;jettySize=auto;html=1;" parent="1" source="jzSwPiA5SmMhQmbik8Ob-86" target="jzSwPiA5SmMhQmbik8Ob-88" edge="1">
          <mxGeometry relative="1" as="geometry" />
        </mxCell>
        <mxCell id="jzSwPiA5SmMhQmbik8Ob-90" value="是" style="edgeLabel;html=1;align=center;verticalAlign=middle;resizable=0;points=[];" parent="jzSwPiA5SmMhQmbik8Ob-89" vertex="1" connectable="0">
          <mxGeometry x="-0.209" y="3" relative="1" as="geometry">
            <mxPoint as="offset" />
          </mxGeometry>
        </mxCell>
        <mxCell id="jzSwPiA5SmMhQmbik8Ob-94" style="edgeStyle=orthogonalEdgeStyle;rounded=0;orthogonalLoop=1;jettySize=auto;html=1;entryX=1;entryY=0.5;entryDx=0;entryDy=0;" parent="1" source="jzSwPiA5SmMhQmbik8Ob-86" target="jzSwPiA5SmMhQmbik8Ob-91" edge="1">
          <mxGeometry relative="1" as="geometry">
            <Array as="points">
              <mxPoint x="1809" y="428" />
              <mxPoint x="1809" y="709" />
            </Array>
          </mxGeometry>
        </mxCell>
        <mxCell id="jzSwPiA5SmMhQmbik8Ob-96" value="否" style="edgeLabel;html=1;align=center;verticalAlign=middle;resizable=0;points=[];" parent="jzSwPiA5SmMhQmbik8Ob-94" vertex="1" connectable="0">
          <mxGeometry x="-0.0413" y="1" relative="1" as="geometry">
            <mxPoint as="offset" />
          </mxGeometry>
        </mxCell>
        <mxCell id="jzSwPiA5SmMhQmbik8Ob-86" value="根据唯一标识查询可查询数据源缓存" style="rhombus;whiteSpace=wrap;html=1;" parent="1" vertex="1">
          <mxGeometry x="1590.25" y="375" width="199" height="105" as="geometry" />
        </mxCell>
        <mxCell id="jzSwPiA5SmMhQmbik8Ob-92" style="edgeStyle=orthogonalEdgeStyle;rounded=0;orthogonalLoop=1;jettySize=auto;html=1;entryX=0.5;entryY=0;entryDx=0;entryDy=0;" parent="1" source="jzSwPiA5SmMhQmbik8Ob-88" target="jzSwPiA5SmMhQmbik8Ob-91" edge="1">
          <mxGeometry relative="1" as="geometry" />
        </mxCell>
        <mxCell id="jzSwPiA5SmMhQmbik8Ob-88" value="替换查询数据源,仅保留第一次查询数据的数据源" style="rounded=0;whiteSpace=wrap;html=1;" parent="1" vertex="1">
          <mxGeometry x="1629.75" y="528" width="120" height="60" as="geometry" />
        </mxCell>
        <mxCell id="jzSwPiA5SmMhQmbik8Ob-100" style="edgeStyle=orthogonalEdgeStyle;rounded=0;orthogonalLoop=1;jettySize=auto;html=1;entryX=0.5;entryY=0;entryDx=0;entryDy=0;" parent="1" source="jzSwPiA5SmMhQmbik8Ob-91" target="jzSwPiA5SmMhQmbik8Ob-99" edge="1">
          <mxGeometry relative="1" as="geometry" />
        </mxCell>
        <mxCell id="jzSwPiA5SmMhQmbik8Ob-91" value="轨迹查询" style="rounded=0;whiteSpace=wrap;html=1;" parent="1" vertex="1">
          <mxGeometry x="1630" y="679" width="120" height="60" as="geometry" />
        </mxCell>
        <mxCell id="jzSwPiA5SmMhQmbik8Ob-99" value="根据唯一标识缓存数据源" style="rounded=0;whiteSpace=wrap;html=1;" parent="1" vertex="1">
          <mxGeometry x="1630" y="795" width="120" height="60" as="geometry" />
        </mxCell>
        <mxCell id="jzSwPiA5SmMhQmbik8Ob-101" style="edgeStyle=orthogonalEdgeStyle;rounded=0;orthogonalLoop=1;jettySize=auto;html=1;entryX=0.494;entryY=0.045;entryDx=0;entryDy=0;entryPerimeter=0;" parent="1" source="jzSwPiA5SmMhQmbik8Ob-67" target="jzSwPiA5SmMhQmbik8Ob-86" edge="1">
          <mxGeometry relative="1" as="geometry" />
        </mxCell>
        <mxCell id="7UzMW6fhnClQkRHmtL1S-5" value="" style="endArrow=classic;html=1;rounded=0;entryX=0.982;entryY=1.182;entryDx=0;entryDy=0;entryPerimeter=0;" parent="1" edge="1" target="jzSwPiA5SmMhQmbik8Ob-1">
          <mxGeometry width="50" height="50" relative="1" as="geometry">
            <mxPoint x="1080" y="632" as="sourcePoint" />
            <mxPoint x="1078" y="277" as="targetPoint" />
          </mxGeometry>
        </mxCell>
        <mxCell id="7UzMW6fhnClQkRHmtL1S-6" value="成功" style="edgeLabel;html=1;align=center;verticalAlign=middle;resizable=0;points=[];" parent="7UzMW6fhnClQkRHmtL1S-5" vertex="1" connectable="0">
          <mxGeometry x="0.3854" y="-1" relative="1" as="geometry">
            <mxPoint as="offset" />
          </mxGeometry>
        </mxCell>
        <mxCell id="L_R8jjP33GDQDXgNJR4n-12" style="edgeStyle=orthogonalEdgeStyle;rounded=0;orthogonalLoop=1;jettySize=auto;html=1;dashed=1;" edge="1" parent="1" source="L_R8jjP33GDQDXgNJR4n-5" target="jzSwPiA5SmMhQmbik8Ob-8">
          <mxGeometry relative="1" as="geometry" />
        </mxCell>
        <mxCell id="L_R8jjP33GDQDXgNJR4n-13" value="是(添加向南数据源)" style="edgeLabel;html=1;align=center;verticalAlign=middle;resizable=0;points=[];" vertex="1" connectable="0" parent="L_R8jjP33GDQDXgNJR4n-12">
          <mxGeometry x="-0.2193" y="1" relative="1" as="geometry">
            <mxPoint as="offset" />
          </mxGeometry>
        </mxCell>
        <mxCell id="L_R8jjP33GDQDXgNJR4n-14" style="edgeStyle=orthogonalEdgeStyle;rounded=0;orthogonalLoop=1;jettySize=auto;html=1;entryX=0.5;entryY=0;entryDx=0;entryDy=0;" edge="1" parent="1" source="L_R8jjP33GDQDXgNJR4n-5" target="jzSwPiA5SmMhQmbik8Ob-26">
          <mxGeometry relative="1" as="geometry">
            <mxPoint x="599" y="833" as="sourcePoint" />
            <mxPoint x="749" y="1000" as="targetPoint" />
            <Array as="points">
              <mxPoint x="704" y="833" />
            </Array>
          </mxGeometry>
        </mxCell>
        <mxCell id="L_R8jjP33GDQDXgNJR4n-15" value="否(继续原有逻辑)" style="edgeLabel;html=1;align=center;verticalAlign=middle;resizable=0;points=[];" vertex="1" connectable="0" parent="L_R8jjP33GDQDXgNJR4n-14">
          <mxGeometry x="0.415" y="-2" relative="1" as="geometry">
            <mxPoint as="offset" />
          </mxGeometry>
        </mxCell>
        <mxCell id="L_R8jjP33GDQDXgNJR4n-5" value="车牌号前缀是否为宁/陕" style="rhombus;whiteSpace=wrap;html=1;" vertex="1" parent="1">
          <mxGeometry x="659.51" y="811" width="90" height="40" as="geometry" />
        </mxCell>
        <mxCell id="L_R8jjP33GDQDXgNJR4n-22" value="缓存" style="rounded=0;whiteSpace=wrap;html=1;fillColor=#d5e8d4;strokeColor=#82b366;" vertex="1" parent="1">
          <mxGeometry x="1074" y="1044" width="120" height="60" as="geometry" />
        </mxCell>
      </root>
    </mxGraphModel>
  </diagram>
</mxfile>
